<svg alt="logo" preserveAspectRatio="xMinYMin" version="1.1" id="Layer_1-1652388358" x="0px" y="0px" viewBox="0 0 114 48" enable-background="new 0 0 114 48" xml:space="preserve">
<g id="Logotype_3_-1652388358">
	<path d="M87.6,24v5.3c0,1.1-0.9,2-2,2s-2-0.9-2-2V24c0-1.8-1.5-3.4-3.4-3.4s-3.4,1.5-3.4,3.4s1.5,3.4,3.4,3.4c1.1,0,2,0.9,2,2
		s-0.9,2-2,2c-4,0-7.3-3.3-7.3-7.3s3.3-7.3,7.3-7.3S87.6,20,87.6,24z M62.7,20.6c1.1,0,2-0.9,2-2s-0.9-2-2-2h-3.4v-3.4
		c0-1.1-0.9-2-2-2s-2,0.9-2,2V24c0,4,3.3,7.3,7.3,7.3c1.1,0,2-0.9,2-2s-0.9-2-2-2c-1.8,0-3.4-1.5-3.4-3.4v-3.4h3.5V20.6z M39.8,16.7
		c-4,0-7.3,3.3-7.3,7.3s3.3,7.3,7.3,7.3c1.1,0,2-0.9,2-2s-0.9-2-2-2c-1.8,0-3.4-1.5-3.4-3.4s1.5-3.4,3.4-3.4c1.8,0,3.4,1.5,3.4,3.4
		V31c0,0.9-0.7,1.6-1.6,1.6h-1.8c-4,0-7.3,3.3-7.3,7.3s3.3,7.3,7.3,7.3s7.3-3.3,7.3-7.3c0-1.1-0.9-2-2-2s-2,0.9-2,2
		c0,1.8-1.5,3.4-3.4,3.4c-1.8,0-3.4-1.5-3.4-3.4s1.5-3.4,3.4-3.4h1.8c3.1,0,5.5-2.5,5.5-5.5v-7C47.2,20,43.9,16.7,39.8,16.7z
		 M28.4,16.7c-1.1,0-2,0.9-2,2v10.7c0,1.1,0.9,2,2,2s2-0.9,2-2V18.7C30.4,17.6,29.5,16.7,28.4,16.7z M51.3,16.7c-1.1,0-2,0.9-2,2
		v10.7c0,1.1,0.9,2,2,2s2-0.9,2-2V18.7C53.3,17.6,52.4,16.7,51.3,16.7z M68.8,11.3c-1.1,0-2,0.9-2,2v16c0,1.1,0.9,2,2,2s2-0.9,2-2
		v-16C70.8,12.2,69.9,11.3,68.8,11.3z M22.3,11.3c-1.1,0-2,0.9-2,2V24c0,1.8-1.5,3.4-3.4,3.4s-3.4-1.5-3.4-3.4s1.5-3.4,3.4-3.4
		c1.1,0,2-0.9,2-2s-0.9-2-2-2c-4,0-7.3,3.3-7.3,7.3s3.3,7.3,7.3,7.3s7.3-3.3,7.3-7.3V13.3C24.3,12.2,23.4,11.3,22.3,11.3z M97,16.7
		c-1.1,0-2,0.9-2,2s0.9,2,2,2c1.8,0,3.4,1.5,3.4,3.4s-1.5,3.4-3.4,3.4s-3.4-1.5-3.4-3.4V13.3c0-1.1-0.9-2-2-2s-2,0.9-2,2V24
		c0,4,3.3,7.3,7.3,7.3s7.3-3.3,7.3-7.3S101.1,16.7,97,16.7z M28.4,11.3c-1.1,0-2,0.9-2,2s0.9,2,2,2s2-0.9,2-2l0,0
		C30.4,12.2,29.5,11.3,28.4,11.3z M51.3,11.3c-1.1,0-2,0.9-2,2l0,0c0,1.1,0.9,2,2,2s2-0.9,2-2S52.4,11.3,51.3,11.3z"></path>
</g>
</svg>