<svg xmlns="http://www.w3.org/2000/svg" width="360" height="360" preserveAspectRatio="xMidYMid meet" version="1.0" viewBox="0 0 270 270"><metadata>Created by potrace 1.11, written by Peter Selinger 2001-2013</metadata><g fill="#000" stroke="none"><path d="M0 1350 l0 -1350 1350 0 1350 0 0 1350 0 1350 -1350 0 -1350 0 0 -1350z m1939 922 c19 -9 48 -34 65 -55 l31 -39 3 -584 c3 -647 3 -650 -62 -787 -115 -247 -351 -397 -626 -397 -275 0 -511 150 -626 397 -52 109 -67 189 -61 318 8 195 81 354 224 485 170 155 463 229 571 143 56 -44 85 -106 78 -168 -7 -61 -46 -121 -97 -147 -19 -10 -70 -22 -113 -28 -131 -16 -211 -74 -265 -190 -33 -72 -34 -172 -3 -242 29 -66 102 -141 165 -169 73 -33 181 -33 254 0 62 27 135 102 166 169 22 46 22 58 27 622 4 411 8 581 17 595 14 24 60 68 88 83 31 18 125 14 164 -6z" transform="translate(0.000000,270.000000) scale(0.100000,-0.100000)"/></g></svg>